<svg width="30" height="30" viewBox="0 0 30 30" fill="none" xmlns="http://www.w3.org/2000/svg">
<path d="M4.375 5.625H6.3225C7.1925 5.625 7.6275 5.625 7.955 5.86125C8.2825 6.0975 8.42 6.51 8.695 7.335L9.375 9.375" stroke="black" stroke-linecap="round"/>
<path d="M21.875 21.875H10.0625C9.88129 21.875 9.79004 21.875 9.72004 21.8675C9.54648 21.8481 9.37891 21.7926 9.22812 21.7045C9.07733 21.6164 8.94667 21.4977 8.84456 21.3561C8.74245 21.2144 8.67117 21.0529 8.6353 20.882C8.59943 20.7111 8.59976 20.5345 8.63629 20.3638C8.66503 20.2531 8.69882 20.1438 8.73754 20.0362C8.80254 19.8437 8.83379 19.7475 8.87004 19.6613C9.04798 19.2351 9.3405 18.8665 9.71515 18.5964C10.0898 18.3263 10.532 18.1653 10.9925 18.1313C11.085 18.125 11.1863 18.125 11.3888 18.125H18.125" stroke="black" stroke-linecap="round" stroke-linejoin="round"/>
<path d="M17.7237 18.125H13.9225C12.3225 18.125 11.5225 18.125 10.8975 17.7125C10.2712 17.3 9.95625 16.565 9.32625 15.095L9.115 14.6025C8.1025 12.24 7.5975 11.0612 8.1525 10.2175C8.71 9.375 9.995 9.375 12.5625 9.375H19.1625C22.0375 9.375 23.4737 9.375 24.0162 10.3087C24.5575 11.2425 23.845 12.49 22.4187 14.985L22.065 15.6062C21.3625 16.835 21.0112 17.45 20.4287 17.7875C19.8462 18.125 19.1387 18.125 17.7237 18.125Z" stroke="black" stroke-linecap="round"/>
<path d="M21.25 26.25C21.9404 26.25 22.5 25.6904 22.5 25C22.5 24.3096 21.9404 23.75 21.25 23.75C20.5596 23.75 20 24.3096 20 25C20 25.6904 20.5596 26.25 21.25 26.25Z" fill="black"/>
<path d="M11.25 26.25C11.9404 26.25 12.5 25.6904 12.5 25C12.5 24.3096 11.9404 23.75 11.25 23.75C10.5596 23.75 10 24.3096 10 25C10 25.6904 10.5596 26.25 11.25 26.25Z" fill="black"/>
</svg>
