<svg width="30" height="30" viewBox="0 0 30 30" fill="none" xmlns="http://www.w3.org/2000/svg">
<path d="M13.2387 3.14125C14.3683 2.6833 15.6317 2.6833 16.7613 3.14125L26.1337 6.94125C26.5375 7.10478 26.8832 7.3851 27.1266 7.74632C27.37 8.10753 27.5 8.53318 27.5 8.96875V21.035C27.4998 21.4704 27.3696 21.8957 27.1262 22.2567C26.8828 22.6177 26.5373 22.8978 26.1337 23.0613L16.7613 26.8613C15.6317 27.3192 14.3683 27.3192 13.2387 26.8613L3.86625 23.0613C3.46254 22.8977 3.11684 22.6174 2.87343 22.2562C2.63003 21.895 2.5 21.4693 2.5 21.0338V8.97C2.5 8.53443 2.63003 8.10878 2.87343 7.74757C3.11684 7.38635 3.46254 7.10603 3.86625 6.9425L13.2387 3.14125ZM16.0563 4.87875C15.3788 4.60425 14.6212 4.60425 13.9437 4.87875L11.55 5.85L20.9587 9.50875L24.295 8.22125L16.0563 4.87875ZM18.3638 10.51L9.01875 6.875L5.7375 8.205L15.0013 11.8075L18.3638 10.51ZM4.375 21.035C4.37516 21.0971 4.39379 21.1577 4.42852 21.2091C4.46325 21.2605 4.5125 21.3004 4.57 21.3238L13.9437 25.1238C13.9829 25.1404 14.0225 25.1554 14.0625 25.1688V13.455L4.375 9.6875V21.035ZM16.0563 25.1238L25.43 21.3238C25.4877 21.3003 25.5371 21.2602 25.5718 21.2086C25.6066 21.1569 25.6251 21.096 25.625 21.0338V9.7175L15.9375 13.4575V25.17L16.0563 25.1238Z" fill="black"/>
</svg>
