<svg width="30" height="30" viewBox="0 0 30 30" fill="none" xmlns="http://www.w3.org/2000/svg">
<path d="M24.4614 6.79981C25.6071 7.95018 26.2504 9.50763 26.2504 11.1312C26.2504 12.7548 25.6071 14.3122 24.4614 15.4626L14.9994 25.0002L5.5374 15.462C4.68633 14.6054 4.10687 13.5167 3.87156 12.3323C3.63626 11.1479 3.75556 9.92045 4.21455 8.80355C4.67353 7.68664 5.45179 6.72995 6.4519 6.05324C7.452 5.37654 8.62951 5.00989 9.837 4.99921C11.4515 5.00857 12.9969 5.65554 14.1366 6.79921C14.4692 7.12856 14.7591 7.49847 14.9994 7.90021C15.2397 7.49868 15.5296 7.12898 15.8622 6.79981C16.4238 6.22972 17.0932 5.77701 17.8314 5.468C18.5696 5.15899 19.3618 4.99986 20.1621 4.99986C20.9624 4.99986 21.7546 5.15899 22.4928 5.468C23.231 5.77701 23.8998 6.22972 24.4614 6.79981Z" stroke="black" stroke-linecap="round" stroke-linejoin="round"/>
</svg>
