<svg width="33.000000" height="27.000000" viewBox="0 0 33 27" fill="none" xmlns="http://www.w3.org/2000/svg" xmlns:xlink="http://www.w3.org/1999/xlink">
	<desc>
			Created with Pixso.
	</desc>
	<defs>
		<clipPath id="clip70_143">
			<rect id="bx:map" rx="0.000000" width="32.000000" height="26.000000" transform="translate(0.500000 0.500000)" fill="white" fill-opacity="0"/>
		</clipPath>
	</defs>
	<rect id="bx:map" rx="0.000000" width="32.000000" height="26.000000" transform="translate(0.500000 0.500000)" fill="#FFFFFF" fill-opacity="0"/>
	<g clip-path="url(#clip70_143)">
		<path id="Vector" d="M16 15.75C18.94 15.75 21.33 13.73 21.33 11.25C21.33 8.76 18.94 6.75 16 6.75C13.05 6.75 10.66 8.76 10.66 11.25C10.66 13.73 13.05 15.75 16 15.75ZM16 9C17.47 9 18.66 10 18.66 11.25C18.66 12.49 17.47 13.5 16 13.5C14.52 13.5 13.33 12.49 13.33 11.25C13.33 10 14.52 9 16 9Z" fill="#000000" fill-opacity="1.000000" fill-rule="nonzero"/>
		<path id="Vector" d="M15.22 24.54C15.45 24.67 15.72 24.74 16 24.74C16.27 24.74 16.54 24.67 16.77 24.54C17.17 24.29 26.7 18.49 26.66 11.25C26.66 6.28 21.88 2.25 16 2.25C10.11 2.25 5.33 6.28 5.33 11.24C5.29 18.49 14.82 24.29 15.22 24.54ZM16 4.5C20.41 4.5 24 7.52 24 11.25C24.02 16.24 18.14 20.73 16 22.2C13.85 20.73 7.97 16.24 8 11.25C8 7.52 11.58 4.5 16 4.5Z" fill="#000000" fill-opacity="1.000000" fill-rule="nonzero"/>
	</g>
</svg>
