<svg width="53.340088" height="48.059998" viewBox="0 0 53.3401 48.06" fill="none" xmlns="http://www.w3.org/2000/svg" xmlns:xlink="http://www.w3.org/1999/xlink">
	<desc>
			Created with Pixso.
	</desc>
	<defs/>
	<path id="car-icon" d="M52.27 21.91L40 12.05L40 5.33C40.07 3.98 39.6 2.66 38.69 1.66C37.79 0.66 36.52 0.06 35.17 0L4.77 0C3.44 0.08 2.19 0.68 1.29 1.68C0.4 2.68 -0.06 3.99 0 5.33L0 31.99C-0.02 33.05 0.27 34.09 0.84 34.99C1.41 35.88 2.23 36.58 3.2 37.01C2.71 38.21 2.52 39.51 2.64 40.8C2.77 42.09 3.21 43.34 3.92 44.42C4.63 45.51 5.6 46.4 6.73 47.03C7.87 47.66 9.14 48 10.44 48.03C11.73 48.06 13.02 47.77 14.18 47.19C15.34 46.61 16.34 45.76 17.1 44.7C17.86 43.65 18.35 42.43 18.53 41.14C18.71 39.86 18.57 38.55 18.13 37.33L35.09 37.33C34.66 38.53 34.52 39.83 34.68 41.11C34.85 42.38 35.33 43.59 36.06 44.65C36.8 45.7 37.78 46.56 38.92 47.15C40.06 47.75 41.33 48.06 42.61 48.06C43.9 48.06 45.17 47.75 46.31 47.15C47.45 46.56 48.43 45.7 49.17 44.65C49.9 43.59 50.38 42.38 50.55 41.11C50.71 39.83 50.57 38.53 50.13 37.33L50.67 37.33C51.38 37.33 52.05 37.05 52.55 36.55C53.05 36.05 53.34 35.37 53.34 34.66L53.34 23.99C53.33 23.59 53.23 23.19 53.04 22.83C52.86 22.47 52.59 22.16 52.27 21.91ZM48 25.27L48 31.99L40 31.99L40 18.87L48 25.27ZM13.33 39.99C13.33 40.52 13.18 41.04 12.89 41.47C12.59 41.91 12.18 42.25 11.69 42.46C11.2 42.66 10.66 42.71 10.15 42.61C9.63 42.51 9.16 42.25 8.78 41.88C8.41 41.51 8.16 41.03 8.05 40.51C7.95 40 8 39.46 8.2 38.97C8.41 38.49 8.75 38.07 9.19 37.78C9.62 37.48 10.14 37.33 10.67 37.33C11.38 37.33 12.05 37.61 12.55 38.11C13.05 38.61 13.33 39.29 13.33 39.99ZM26.67 31.99L5.33 31.99L5.33 5.33L34.67 5.33L34.67 31.99L26.67 31.99ZM45.33 39.99C45.33 40.52 45.18 41.04 44.89 41.47C44.59 41.91 44.18 42.25 43.69 42.46C43.2 42.66 42.67 42.71 42.15 42.61C41.63 42.51 41.16 42.25 40.78 41.88C40.41 41.51 40.16 41.03 40.05 40.51C39.95 40 40 39.46 40.2 38.97C40.41 38.49 40.75 38.07 41.19 37.78C41.63 37.48 42.14 37.33 42.67 37.33C43.38 37.33 44.05 37.61 44.55 38.11C45.05 38.61 45.33 39.29 45.33 39.99Z" fill="#000000" fill-opacity="1.000000" fill-rule="nonzero"/>
</svg>
