<svg width="30" height="30" viewBox="0 0 30 30" fill="none" xmlns="http://www.w3.org/2000/svg">
<path fill-rule="evenodd" clip-rule="evenodd" d="M19.6189 11.6026C19.8569 11.8333 19.9936 12.1492 19.9987 12.4806C20.0039 12.8121 19.8772 13.132 19.6464 13.3701L14.6089 18.5688C14.4725 18.71 14.3091 18.8223 14.1284 18.899C13.9477 18.9757 13.7534 19.0152 13.5571 19.0152C13.3607 19.0152 13.1664 18.9757 12.9857 18.899C12.805 18.8223 12.6416 18.71 12.5052 18.5688L10.3514 16.3463C10.2357 16.2288 10.1444 16.0895 10.0827 15.9364C10.0211 15.7834 9.99035 15.6197 9.99227 15.4548C9.9942 15.2898 10.0288 15.1269 10.094 14.9753C10.1592 14.8238 10.2537 14.6867 10.3722 14.5718C10.4906 14.457 10.6306 14.3668 10.7841 14.3063C10.9376 14.2459 11.1015 14.2164 11.2665 14.2196C11.4314 14.2228 11.5941 14.2586 11.7451 14.325C11.8961 14.3914 12.0325 14.487 12.1464 14.6063L13.5564 16.0613L17.8514 11.6301C18.0822 11.392 18.398 11.2554 18.7295 11.2503C19.0609 11.2451 19.3809 11.3718 19.6189 11.6026Z" fill="black"/>
<path fill-rule="evenodd" clip-rule="evenodd" d="M13.8255 2.95005C14.5863 2.68967 15.4121 2.68967 16.173 2.95005L23.493 5.44505C24.2677 5.70993 24.9304 6.22842 25.3738 6.91666C25.8173 7.6049 26.0156 8.42262 25.9367 9.23755L24.9892 18.9775C24.9395 19.4945 24.7793 19.9948 24.5194 20.4444C24.2595 20.8941 23.9061 21.2826 23.483 21.5838L17.0855 26.155C16.4775 26.589 15.7506 26.8253 15.0037 26.8318C14.2567 26.8383 13.5259 26.6147 12.9105 26.1913L6.56421 21.8225C6.12683 21.5216 5.76064 21.1285 5.49135 20.6709C5.22207 20.2133 5.05622 19.7023 5.00546 19.1738L4.05546 9.23255C3.97788 8.41811 4.17711 7.60131 4.62098 6.91407C5.06485 6.22683 5.72744 5.70929 6.50171 5.44505L13.8255 2.95005ZM15.4392 5.10005C15.1538 5.00365 14.8446 5.00365 14.5592 5.10005L7.23546 7.59755C6.94498 7.69636 6.69635 7.89032 6.52984 8.14803C6.36332 8.40575 6.28867 8.71212 6.31796 9.01755L7.26921 18.9588C7.30671 19.3588 7.52171 19.7238 7.85421 19.9525L14.1992 24.32C14.6717 24.645 15.2992 24.64 15.7655 24.3075L22.1642 19.7363C22.322 19.6225 22.4538 19.4765 22.551 19.308C22.6482 19.1395 22.7085 18.9523 22.728 18.7588L23.6767 9.0188C23.7066 8.71297 23.6322 8.40601 23.4657 8.14778C23.2991 7.88955 23.0501 7.6952 22.7592 7.5963L15.4392 5.10005Z" fill="black"/>
</svg>
