<svg width="64.000000" height="64.000000" viewBox="0 0 64 64" fill="none" xmlns="http://www.w3.org/2000/svg" xmlns:xlink="http://www.w3.org/1999/xlink">
	<desc>
			Created with Pixso.
	</desc>
	<defs>
		<clipPath id="clip13_162">
			<rect id="eva:car-outline" rx="0.000000" width="63.000000" height="63.000000" transform="translate(0.500000 0.500000)" fill="white" fill-opacity="0"/>
		</clipPath>
	</defs>
	<rect id="eva:car-outline" rx="0.000000" width="63.000000" height="63.000000" transform="translate(0.500000 0.500000)" fill="#FFFFFF" fill-opacity="0"/>
	<g clip-path="url(#clip13_162)">
		<path id="Vector" d="M57.6 29.91L45.33 20.05L45.33 13.33C45.39 11.98 44.92 10.66 44.02 9.66C43.11 8.66 41.85 8.06 40.5 8L10.1 8C8.76 8.08 7.51 8.68 6.62 9.68C5.73 10.68 5.26 11.99 5.33 13.33L5.33 39.99C5.3 41.05 5.59 42.09 6.16 42.99C6.73 43.88 7.56 44.58 8.53 45.01C8.04 46.21 7.85 47.51 7.97 48.8C8.1 50.09 8.53 51.34 9.24 52.42C9.96 53.51 10.92 54.4 12.06 55.03C13.19 55.66 14.46 56 15.76 56.03C17.06 56.06 18.34 55.77 19.51 55.19C20.67 54.61 21.67 53.76 22.43 52.7C23.19 51.65 23.68 50.43 23.86 49.14C24.04 47.86 23.9 46.55 23.46 45.33L40.42 45.33C39.98 46.53 39.84 47.83 40.01 49.11C40.18 50.38 40.65 51.59 41.39 52.65C42.13 53.7 43.11 54.56 44.25 55.15C45.39 55.75 46.66 56.06 47.94 56.06C49.23 56.06 50.49 55.75 51.63 55.15C52.77 54.56 53.76 53.7 54.49 52.65C55.23 51.59 55.7 50.38 55.87 49.11C56.04 47.83 55.9 46.53 55.46 45.33L56 45.33C56.7 45.33 57.38 45.05 57.88 44.55C58.38 44.05 58.66 43.37 58.66 42.66L58.66 31.99C58.65 31.59 58.55 31.19 58.37 30.83C58.18 30.47 57.92 30.16 57.6 29.91ZM53.33 33.27L53.33 39.99L45.33 39.99L45.33 26.87L53.33 33.27ZM18.66 47.99C18.66 48.52 18.51 49.04 18.21 49.47C17.92 49.91 17.5 50.25 17.02 50.46C16.53 50.66 15.99 50.71 15.47 50.61C14.96 50.51 14.48 50.25 14.11 49.88C13.74 49.51 13.48 49.03 13.38 48.51C13.28 48 13.33 47.46 13.53 46.97C13.73 46.49 14.08 46.07 14.51 45.78C14.95 45.48 15.47 45.33 16 45.33C16.7 45.33 17.38 45.61 17.88 46.11C18.38 46.61 18.66 47.29 18.66 47.99ZM32 39.99L10.66 39.99L10.66 13.33L40 13.33L40 39.99L32 39.99ZM50.66 47.99C50.66 48.52 50.51 49.04 50.21 49.47C49.92 49.91 49.5 50.25 49.02 50.46C48.53 50.66 47.99 50.71 47.48 50.61C46.96 50.51 46.48 50.25 46.11 49.88C45.74 49.51 45.48 49.03 45.38 48.51C45.28 48 45.33 47.46 45.53 46.97C45.73 46.49 46.08 46.07 46.51 45.78C46.95 45.48 47.47 45.33 48 45.33C48.7 45.33 49.38 45.61 49.88 46.11C50.38 46.61 50.66 47.29 50.66 47.99Z" fill="#000000" fill-opacity="1.000000" fill-rule="nonzero"/>
	</g>
</svg>
