<svg width="27" height="30" viewBox="0 0 27 30" fill="none" xmlns="http://www.w3.org/2000/svg">
<g clip-path="url(#clip0_272_181)">
<path d="M24.0009 14.025L18.2509 9.4V6.25C18.2815 5.61868 18.0606 5.00098 17.6364 4.53233C17.2123 4.06369 16.6197 3.78235 15.9884 3.75H1.73842C1.11163 3.7887 0.525324 4.07279 0.106519 4.54073C-0.312286 5.00867 -0.529864 5.62277 -0.49908 6.25V18.75C-0.510682 19.2464 -0.374212 19.735 -0.107068 20.1535C0.160076 20.572 0.545795 20.9015 1.00092 21.1C0.770713 21.6632 0.680993 22.2739 0.739503 22.8795C0.798012 23.4851 1.00299 24.0674 1.33676 24.5761C1.67053 25.0848 2.12305 25.5046 2.6553 25.7994C3.18754 26.0942 3.78351 26.255 4.39178 26.268C5.00006 26.2811 5.60237 26.1459 6.14675 25.8742C6.69113 25.6025 7.16123 25.2024 7.51648 24.7085C7.87173 24.2146 8.10147 23.6416 8.18587 23.0391C8.27027 22.4366 8.20679 21.8225 8.00092 21.25H15.9509C15.7453 21.8164 15.6793 22.424 15.7583 23.0214C15.8374 23.6187 16.0592 24.1883 16.4051 24.6817C16.7509 25.1751 17.2106 25.578 17.7451 25.8561C18.2797 26.1342 18.8734 26.2794 19.4759 26.2794C20.0785 26.2794 20.6722 26.1342 21.2067 25.8561C21.7413 25.578 22.2009 25.1751 22.5468 24.6817C22.8926 24.1883 23.1145 23.6187 23.1935 23.0214C23.2726 22.424 23.2065 21.8164 23.0009 21.25H23.2509C23.5824 21.25 23.9004 21.1183 24.1348 20.8839C24.3692 20.6495 24.5009 20.3315 24.5009 20V15C24.4971 14.8102 24.4501 14.6237 24.3634 14.4548C24.2768 14.2859 24.1528 14.1389 24.0009 14.025ZM22.0009 15.6V18.75H18.2509V12.6L22.0009 15.6ZM5.75092 22.5C5.75092 22.7472 5.67761 22.9889 5.54026 23.1945C5.4029 23.4 5.20768 23.5602 4.97927 23.6549C4.75087 23.7495 4.49953 23.7742 4.25706 23.726C4.01458 23.6777 3.79185 23.5587 3.61704 23.3839C3.44222 23.2091 3.32317 22.9863 3.27494 22.7439C3.22671 22.5014 3.25146 22.2501 3.34607 22.0216C3.44068 21.7932 3.6009 21.598 3.80646 21.4607C4.01202 21.3233 4.25369 21.25 4.50092 21.25C4.83244 21.25 5.15038 21.3817 5.3848 21.6161C5.61922 21.8505 5.75092 22.1685 5.75092 22.5ZM12.0009 18.75H2.00092V6.25H15.7509V18.75H12.0009ZM20.7509 22.5C20.7509 22.7472 20.6776 22.9889 20.5403 23.1945C20.4029 23.4 20.2077 23.5602 19.9793 23.6549C19.7509 23.7495 19.4995 23.7742 19.2571 23.726C19.0146 23.6777 18.7919 23.5587 18.617 23.3839C18.4422 23.2091 18.3232 22.9863 18.2749 22.7439C18.2267 22.5014 18.2515 22.2501 18.3461 22.0216C18.4407 21.7932 18.6009 21.598 18.8065 21.4607C19.012 21.3233 19.2537 21.25 19.5009 21.25C19.8324 21.25 20.1504 21.3817 20.3848 21.6161C20.6192 21.8505 20.7509 22.1685 20.7509 22.5Z" fill="black"/>
</g>
<defs>
<clipPath id="clip0_272_181">
<rect width="27" height="30" fill="white"/>
</clipPath>
</defs>
</svg>
