<svg width="30" height="30" viewBox="0 0 30 30" fill="none" xmlns="http://www.w3.org/2000/svg">
<path d="M24.462 6.79975C25.6077 7.95012 26.251 9.50757 26.251 11.1311C26.251 12.7547 25.6077 14.3122 24.462 15.4625L15 25.0001L5.53801 15.4619C4.68694 14.6053 4.10748 13.5167 3.87217 12.3323C3.63687 11.1479 3.75617 9.92039 4.21516 8.80349C4.67414 7.68658 5.4524 6.72989 6.45251 6.05318C7.45261 5.37648 8.63012 5.00983 9.83761 4.99915C11.4521 5.0085 12.9976 5.65548 14.1372 6.79915C14.4699 7.1285 14.7597 7.49841 15 7.90015C15.2403 7.49862 15.5302 7.12892 15.8628 6.79975C16.4244 6.22966 17.0938 5.77695 17.832 5.46794C18.5702 5.15893 19.3625 4.9998 20.1627 4.9998C20.963 4.9998 21.7552 5.15893 22.4934 5.46794C23.2316 5.77695 23.9004 6.22966 24.462 6.79975Z" stroke="black" stroke-linecap="round" stroke-linejoin="round"/>
</svg>
