<svg width="24.000000" height="24.000000" viewBox="0 0 24 24" fill="none" xmlns="http://www.w3.org/2000/svg" xmlns:xlink="http://www.w3.org/1999/xlink">
	<desc>
			Created with Pixso.
	</desc>
	<defs>
		<clipPath id="clip70_247">
			<rect id="fluent:box-24-regular" rx="0.000000" width="23.000000" height="23.000000" transform="translate(0.500000 0.500000)" fill="white" fill-opacity="0"/>
		</clipPath>
	</defs>
	<rect id="fluent:box-24-regular" rx="0.000000" width="23.000000" height="23.000000" transform="translate(0.500000 0.500000)" fill="#FFFFFF" fill-opacity="0"/>
	<g clip-path="url(#clip70_247)">
		<path id="Vector" d="M10.59 2.51C11.49 2.14 12.5 2.14 13.4 2.51L20.9 5.55C21.23 5.68 21.5 5.9 21.7 6.19C21.89 6.48 22 6.82 22 7.17L22 16.82C21.99 17.17 21.89 17.51 21.7 17.8C21.5 18.09 21.22 18.31 20.9 18.44L13.4 21.48C12.5 21.85 11.49 21.85 10.59 21.48L3.09 18.44C2.77 18.31 2.49 18.09 2.29 17.8C2.1 17.51 2 17.17 2 16.82L2 7.17C2 6.82 2.1 6.48 2.29 6.19C2.49 5.9 2.77 5.68 3.09 5.55L10.59 2.51ZM12.84 3.9C12.3 3.68 11.69 3.68 11.15 3.9L9.23 4.67L16.76 7.6L19.43 6.57L12.84 3.9ZM14.69 8.4L7.21 5.5L4.59 6.56L12 9.44L14.69 8.4ZM3.5 16.82C3.5 16.87 3.51 16.92 3.54 16.96C3.57 17 3.61 17.04 3.65 17.05L11.15 20.09C11.18 20.11 11.21 20.12 11.25 20.13L11.25 10.76L3.5 7.75L3.5 16.82ZM12.84 20.09L20.34 17.05C20.39 17.04 20.42 17 20.45 16.96C20.48 16.92 20.5 16.87 20.5 16.82L20.5 7.77L12.75 10.76L12.75 20.13L12.84 20.09Z" fill="#000000" fill-opacity="1.000000" fill-rule="nonzero"/>
	</g>
</svg>
