<svg width="50" height="50" viewBox="0 0 50 50" fill="none" xmlns="http://www.w3.org/2000/svg">
<path d="M25.5 8.19996C34.325 8.19996 41.575 14.725 42.8 23.2H48L39.25 33.2L30.5 23.2H36.3C35.7403 20.7529 34.3677 18.5679 32.4062 17.0014C30.4447 15.435 28.0102 14.5796 25.5 14.575C21.875 14.575 18.675 16.35 16.65 19.025L12.375 14.15C14.0118 12.2795 16.0298 10.7808 18.2936 9.75458C20.5574 8.72834 23.0145 8.19827 25.5 8.19996ZM24.5 41.8C15.7 41.8 8.425 35.275 7.2 26.8H2L10.75 16.8C13.675 20.125 16.575 23.475 19.5 26.8H13.7C14.2597 29.247 15.6323 31.432 17.5938 32.9985C19.5553 34.5649 21.9898 35.4203 24.5 35.425C28.125 35.425 31.325 33.65 33.35 30.975L37.625 35.85C35.9903 37.723 33.9727 39.2234 31.7084 40.2498C29.4442 41.2763 26.986 41.8049 24.5 41.8Z" fill="black"/>
</svg>
