<svg width="20" height="16" viewBox="0 0 20 16" fill="none" xmlns="http://www.w3.org/2000/svg">
<path d="M3.55634 12.5633C3.74384 13.6766 4.89634 14.5493 6.29967 14.6006C7.47967 14.644 8.67884 14.6666 9.99967 14.6666C11.3205 14.6666 12.5197 14.644 13.6997 14.6C15.103 14.5493 16.2555 13.6766 16.443 12.5633C16.5655 11.8366 16.6663 11.092 16.6663 10.3333C16.6663 9.57464 16.5655 8.82998 16.443 8.10331C16.2555 6.98998 15.103 6.11731 13.6997 6.06598C12.4672 6.02091 11.2335 5.99891 9.99967 5.99998C8.67884 5.99998 7.47967 6.02264 6.29967 6.06664C4.89634 6.11731 3.74384 6.98998 3.55634 8.10331C3.43301 8.82998 3.33301 9.57464 3.33301 10.3333C3.33301 11.092 3.43384 11.8366 3.55634 12.5633Z" stroke="#D2D2D2" stroke-width="1.5" stroke-linecap="round" stroke-linejoin="round"/>
<path d="M6.25 5.99998V4.33331C6.25 3.53766 6.64509 2.7746 7.34835 2.21199C8.05161 1.64938 9.00544 1.33331 10 1.33331C10.9946 1.33331 11.9484 1.64938 12.6516 2.21199C13.3549 2.7746 13.75 3.53766 13.75 4.33331V5.99998M13.3333 10.3266V10.3333M10 10.3266V10.3333M6.66667 10.3266V10.3333" stroke="#D2D2D2" stroke-width="1.5" stroke-linecap="round" stroke-linejoin="round"/>
</svg>
