<svg width="28" height="28" viewBox="0 0 28 28" fill="none" xmlns="http://www.w3.org/2000/svg">
<path d="M17.4997 16.3333L16.9245 16.429C16.9106 16.3454 16.9151 16.2599 16.9376 16.1782C16.9601 16.0966 17.0001 16.0209 17.0548 15.9563C17.1096 15.8916 17.1777 15.8397 17.2545 15.8041C17.3313 15.7685 17.415 15.75 17.4997 15.75V16.3333ZM4.66634 16.3333V16.9166C4.51163 16.9166 4.36326 16.8552 4.25386 16.7458C4.14447 16.6364 4.08301 16.488 4.08301 16.3333H4.66634ZM6.99967 4.08329H20.253V5.24996H6.99967V4.08329ZM21.653 16.9166H17.4997V15.75H21.653V16.9166ZM18.0748 16.2376L19.0152 21.8785L17.8648 22.071L16.9245 16.429L18.0748 16.2376ZM17.2897 23.9166H17.0412V22.75H17.2897V23.9166ZM13.6427 22.0978L10.7073 17.696L11.678 17.0485L14.6122 21.4515L13.6427 22.0978ZM9.25134 16.9166H4.66634V15.75H9.25134V16.9166ZM4.08301 16.3333V6.99996H5.24967V16.3333H4.08301ZM23.1137 6.42829L24.5137 13.4283L23.3703 13.657L21.9703 6.65696L23.1137 6.42829ZM10.7073 17.696C10.5475 17.4562 10.331 17.2597 10.0771 17.1237C9.82306 16.9878 9.53943 16.9166 9.25134 16.9166V15.75C9.73145 15.75 10.2041 15.8685 10.6275 16.095C11.0508 16.3215 11.4116 16.649 11.678 17.0485L10.7073 17.696ZM19.0152 21.8785C19.057 22.1291 19.0438 22.3859 18.9763 22.631C18.9089 22.876 18.7889 23.1034 18.6247 23.2974C18.4605 23.4913 18.256 23.6472 18.0254 23.7542C17.7949 23.8611 17.5438 23.9165 17.2897 23.9166V22.75C17.3744 22.7501 17.4582 22.7317 17.5352 22.6962C17.6122 22.6606 17.6804 22.6087 17.7353 22.5441C17.7902 22.4795 17.8303 22.4037 17.8528 22.322C17.8754 22.2402 17.8799 22.1546 17.866 22.071L19.0152 21.8785ZM21.653 15.75C21.9119 15.75 22.1676 15.6925 22.4016 15.5818C22.6357 15.4711 22.8422 15.3098 23.0064 15.1096C23.1705 14.9094 23.2882 14.6752 23.351 14.424C23.4137 14.1728 23.4211 13.9108 23.3703 13.657L24.5137 13.4283C24.5982 13.8513 24.5867 14.2877 24.4823 14.7063C24.3778 15.1248 24.1818 15.5149 23.9084 15.8485C23.6351 16.1822 23.2911 16.451 22.9013 16.6357C22.5114 16.8204 22.0855 16.9164 21.6542 16.9166L21.653 15.75ZM20.253 4.08329C20.9274 4.08316 21.5811 4.31675 22.1026 4.7443C22.6242 5.17186 22.9815 5.76695 23.1137 6.42829L21.9703 6.65696C21.891 6.26 21.6765 5.90282 21.3634 5.64627C21.0502 5.38972 20.6578 5.24966 20.253 5.24996V4.08329ZM17.04 23.9166C16.3676 23.9167 15.7055 23.7508 15.1126 23.4335C14.5198 23.1162 14.0144 22.6574 13.6415 22.0978L14.6122 21.4515C14.8785 21.8509 15.2394 22.1784 15.6627 22.4049C16.086 22.6315 16.5587 22.75 17.0388 22.75L17.04 23.9166ZM6.99967 5.24996C6.53555 5.24996 6.09043 5.43433 5.76224 5.76252C5.43405 6.09071 5.24967 6.53583 5.24967 6.99996H4.08301C4.08301 6.61694 4.15845 6.23766 4.30503 5.8838C4.4516 5.52993 4.66644 5.2084 4.93728 4.93756C5.20812 4.66673 5.52965 4.45189 5.88351 4.30531C6.23738 4.15873 6.61665 4.08329 6.99967 4.08329V5.24996Z" fill="#555454"/>
<path d="M9.33301 16.3333V4.66658" stroke="#555454"/>
</svg>
