<svg width="28" height="28" viewBox="0 0 28 28" fill="none" xmlns="http://www.w3.org/2000/svg">
<path d="M17.4997 11.6667L16.9245 11.571C16.9106 11.6546 16.9151 11.7401 16.9376 11.8218C16.9601 11.9034 17.0001 11.9791 17.0548 12.0437C17.1096 12.1084 17.1777 12.1603 17.2545 12.1959C17.3313 12.2315 17.415 12.25 17.4997 12.25V11.6667ZM4.66634 11.6667V11.0834C4.51163 11.0834 4.36326 11.1448 4.25386 11.2542C4.14447 11.3636 4.08301 11.512 4.08301 11.6667H4.66634ZM6.99967 23.9167H20.253V22.75H6.99967V23.9167ZM21.653 11.0834H17.4997V12.25H21.653V11.0834ZM18.0748 11.7624L19.0152 6.12154L17.8648 5.92904L16.9245 11.571L18.0748 11.7624ZM17.2897 4.08337H17.0412V5.25004H17.2897V4.08337ZM13.6427 5.90221L10.7073 10.304L11.678 10.9515L14.6122 6.54854L13.6427 5.90221ZM9.25134 11.0834H4.66634V12.25H9.25134V11.0834ZM4.08301 11.6667V21H5.24967V11.6667H4.08301ZM23.1137 21.5717L24.5137 14.5717L23.3703 14.343L21.9703 21.343L23.1137 21.5717ZM10.7073 10.304C10.5475 10.5438 10.331 10.7403 10.0771 10.8763C9.82306 11.0122 9.53943 11.0834 9.25134 11.0834V12.25C9.73145 12.25 10.2041 12.1315 10.6275 11.905C11.0508 11.6785 11.4116 11.351 11.678 10.9515L10.7073 10.304ZM19.0152 6.12154C19.057 5.87087 19.0438 5.61408 18.9763 5.36905C18.9089 5.12401 18.7889 4.8966 18.6247 4.70263C18.4605 4.50866 18.256 4.35279 18.0254 4.24585C17.7949 4.13891 17.5438 4.08346 17.2897 4.08337V5.25004C17.3744 5.24991 17.4582 5.26826 17.5352 5.30381C17.6122 5.33936 17.6804 5.39126 17.7353 5.45589C17.7902 5.52052 17.8303 5.59633 17.8528 5.67805C17.8754 5.75976 17.8799 5.84541 17.866 5.92904L19.0152 6.12154ZM21.653 12.25C21.9119 12.25 22.1676 12.3075 22.4016 12.4182C22.6357 12.5289 22.8422 12.6902 23.0064 12.8904C23.1705 13.0906 23.2882 13.3248 23.351 13.576C23.4137 13.8272 23.4211 14.0892 23.3703 14.343L24.5137 14.5717C24.5982 14.1487 24.5867 13.7123 24.4823 13.2937C24.3778 12.8752 24.1818 12.4851 23.9084 12.1515C23.6351 11.8178 23.2911 11.549 22.9013 11.3643C22.5114 11.1796 22.0855 11.0836 21.6542 11.0834L21.653 12.25ZM20.253 23.9167C20.9274 23.9168 21.5811 23.6832 22.1026 23.2557C22.6242 22.8281 22.9815 22.233 23.1137 21.5717L21.9703 21.343C21.891 21.74 21.6765 22.0972 21.3634 22.3537C21.0502 22.6103 20.6578 22.7503 20.253 22.75V23.9167ZM17.04 4.08337C16.3676 4.08327 15.7055 4.24924 15.1126 4.56654C14.5198 4.88384 14.0144 5.34264 13.6415 5.90221L14.6122 6.54854C14.8785 6.14909 15.2394 5.82158 15.6627 5.59506C16.086 5.36855 16.5587 5.25003 17.0388 5.25004L17.04 4.08337ZM6.99967 22.75C6.53555 22.75 6.09043 22.5657 5.76224 22.2375C5.43405 21.9093 5.24967 21.4642 5.24967 21H4.08301C4.08301 21.3831 4.15845 21.7623 4.30503 22.1162C4.4516 22.4701 4.66644 22.7916 4.93728 23.0624C5.20812 23.3333 5.52965 23.5481 5.88351 23.6947C6.23738 23.8413 6.61665 23.9167 6.99967 23.9167V22.75Z" fill="#555454"/>
<path d="M9.33301 11.6667V23.3334" stroke="#555454"/>
</svg>
