<svg width="33.000000" height="27.000000" viewBox="0 0 33 27" fill="none" xmlns="http://www.w3.org/2000/svg" xmlns:xlink="http://www.w3.org/1999/xlink">
	<desc>
			Created with Pixso.
	</desc>
	<defs>
		<clipPath id="clip70_137">
			<rect id="lets-icons:message-light" rx="0.000000" width="32.000000" height="26.000000" transform="translate(0.500000 0.500000)" fill="white" fill-opacity="0"/>
		</clipPath>
	</defs>
	<rect id="lets-icons:message-light" rx="0.000000" width="32.000000" height="26.000000" transform="translate(0.500000 0.500000)" fill="#FFFFFF" fill-opacity="0"/>
	<g clip-path="url(#clip70_137)">
		<path id="Vector" d="M26 3C27.84 3 29.33 4.49 29.33 6.33L29.33 19.66C29.33 21.5 27.84 23 26 23L6 23C4.15 23 2.66 21.5 2.66 19.66L2.66 6.33C2.66 4.49 4.15 3 6 3L26 3Z" stroke="#000000" stroke-opacity="1.000000" stroke-width="1.000000"/>
		<path id="Vector" d="M2.66 8L14.51 13.92C14.97 14.15 15.48 14.27 16 14.27C16.51 14.27 17.02 14.15 17.49 13.92L29.33 8" stroke="#000000" stroke-opacity="1.000000" stroke-width="1.000000"/>
	</g>
</svg>
