<svg width="30.000000" height="30.000000" viewBox="0 0 30 30" fill="none" xmlns="http://www.w3.org/2000/svg" xmlns:xlink="http://www.w3.org/1999/xlink">
	<desc>
			Created with Pixso.
	</desc>
	<defs>
		<clipPath id="clip71_777">
			<rect id="lets-icons:basket-alt-3-light" rx="0.000000" width="29.000000" height="29.000000" transform="translate(0.500000 0.500000)" fill="white" fill-opacity="0"/>
		</clipPath>
	</defs>
	<rect id="lets-icons:basket-alt-3-light" rx="0.000000" width="29.000000" height="29.000000" transform="translate(0.500000 0.500000)" fill="#FFFFFF" fill-opacity="0"/>
	<g clip-path="url(#clip71_777)">
		<path id="Vector" d="M4.37 5.62L6.32 5.62C7.19 5.62 7.62 5.62 7.95 5.86C8.28 6.09 8.41 6.51 8.69 7.33L9.37 9.37" stroke="#FFFFFF" stroke-opacity="1.000000" stroke-width="1.000000" stroke-linecap="round"/>
		<path id="Vector" d="M21.87 21.87L10.06 21.87C9.88 21.87 9.79 21.87 9.71 21.86C9.54 21.84 9.37 21.79 9.22 21.7C9.07 21.61 8.94 21.49 8.84 21.35C8.74 21.21 8.67 21.05 8.63 20.88C8.59 20.71 8.59 20.53 8.63 20.36C8.66 20.25 8.69 20.14 8.73 20.03C8.8 19.84 8.83 19.74 8.86 19.66C9.04 19.23 9.34 18.86 9.71 18.59C10.08 18.32 10.53 18.16 10.99 18.13C11.08 18.12 11.18 18.12 11.38 18.12L18.12 18.12" stroke="#FFFFFF" stroke-opacity="1.000000" stroke-width="1.000000" stroke-linejoin="round" stroke-linecap="round"/>
		<path id="Vector" d="M13.92 18.12C12.32 18.12 11.52 18.12 10.89 17.71C10.27 17.29 9.95 16.56 9.32 15.09L9.11 14.6C8.1 12.24 7.59 11.06 8.15 10.21C8.7 9.37 9.99 9.37 12.56 9.37L19.16 9.37C22.03 9.37 23.47 9.37 24.01 10.3C24.55 11.24 23.84 12.49 22.41 14.98L22.06 15.6C21.36 16.83 21.01 17.45 20.42 17.78C19.84 18.12 19.13 18.12 17.72 18.12L13.92 18.12Z" stroke="#FFFFFF" stroke-opacity="1.000000" stroke-width="1.000000"/>
		<path id="Vector" d="M22.5 25C22.5 25.69 21.94 26.25 21.25 26.25C20.55 26.25 20 25.69 20 25C20 24.3 20.55 23.75 21.25 23.75C21.94 23.75 22.5 24.3 22.5 25Z" fill="#FFFFFF" fill-opacity="1.000000" fill-rule="evenodd"/>
		<path id="Vector" d="M12.5 25C12.5 25.69 11.94 26.25 11.25 26.25C10.55 26.25 10 25.69 10 25C10 24.3 10.55 23.75 11.25 23.75C11.94 23.75 12.5 24.3 12.5 25Z" fill="#FFFFFF" fill-opacity="1.000000" fill-rule="evenodd"/>
	</g>
</svg>
