<svg width="24.000000" height="24.000000" viewBox="0 0 24 24" fill="none" xmlns="http://www.w3.org/2000/svg" xmlns:xlink="http://www.w3.org/1999/xlink">
	<desc>
			Created with Pixso.
	</desc>
	<defs>
		<clipPath id="clip70_253">
			<rect id="marketeq:favourite" rx="0.000000" width="23.000000" height="23.000000" transform="translate(0.500000 0.500000)" fill="white" fill-opacity="0"/>
		</clipPath>
	</defs>
	<rect id="marketeq:favourite" rx="0.000000" width="23.000000" height="23.000000" transform="translate(0.500000 0.500000)" fill="#FFFFFF" fill-opacity="0"/>
	<g clip-path="url(#clip70_253)">
		<path id="Vector" d="M21 8.9C21 10.2 20.48 11.44 19.56 12.37L12 20L4.43 12.36C3.74 11.68 3.28 10.81 3.09 9.86C2.9 8.91 3 7.93 3.37 7.04C3.73 6.14 4.36 5.38 5.16 4.84C5.96 4.3 6.9 4 7.87 3.99C9.16 4 10.39 4.52 11.3 5.43C11.57 5.7 11.8 5.99 12 6.32C12.19 5.99 12.42 5.7 12.69 5.43C13.13 4.98 13.67 4.62 14.26 4.37C14.85 4.12 15.49 3.99 16.13 3.99C16.77 3.99 17.4 4.12 17.99 4.37C18.58 4.62 19.12 4.98 19.56 5.43C20.48 6.36 21 7.6 21 8.9Z" stroke="#000000" stroke-opacity="1.000000" stroke-width="2.000000" stroke-linejoin="round"/>
	</g>
</svg>
