<svg width="32" height="32" viewBox="0 0 32 32" fill="none" xmlns="http://www.w3.org/2000/svg">
<g clip-path="url(#clip0_331_386)">
<path d="M15.9991 23.5269C16.4256 23.5269 16.7834 23.3824 17.0724 23.0933C17.3614 22.8043 17.5055 22.447 17.5045 22.0215V16C17.5045 15.5735 17.3599 15.2162 17.0709 14.9282C16.7819 14.6401 16.4246 14.4956 15.9991 14.4946C15.5736 14.4936 15.2163 14.6381 14.9272 14.9282C14.6382 15.2182 14.4937 15.5755 14.4937 16V22.0215C14.4937 22.448 14.6382 22.8058 14.9272 23.0948C15.2163 23.3839 15.5736 23.5279 15.9991 23.5269ZM15.9991 11.4839C16.4256 11.4839 16.7834 11.3393 17.0724 11.0503C17.3614 10.7613 17.5055 10.404 17.5045 9.97849C17.5035 9.55297 17.3589 9.19569 17.0709 8.90666C16.7829 8.61763 16.4256 8.47311 15.9991 8.47311C15.5726 8.47311 15.2153 8.61763 14.9272 8.90666C14.6392 9.19569 14.4947 9.55297 14.4937 9.97849C14.4927 10.404 14.6372 10.7618 14.9272 11.0518C15.2173 11.3419 15.5746 11.4859 15.9991 11.4839ZM15.9991 31.0538C13.9166 31.0538 11.9597 30.6583 10.1281 29.8675C8.29657 29.0767 6.70338 28.0044 5.34854 26.6505C3.9937 25.2967 2.92137 23.7035 2.13155 21.871C1.34173 20.0384 0.946318 18.0814 0.945314 16C0.944311 13.9186 1.33972 11.9616 2.13155 10.129C2.92338 8.29648 3.99571 6.70329 5.34854 5.34945C6.70137 3.99562 8.29456 2.92329 10.1281 2.13246C11.9617 1.34164 13.9186 0.946228 15.9991 0.946228C18.0795 0.946228 20.0365 1.34164 21.87 2.13246C23.7036 2.92329 25.2968 3.99562 26.6496 5.34945C28.0024 6.70329 29.0753 8.29648 29.8681 10.129C30.6609 11.9616 31.0559 13.9186 31.0528 16C31.0498 18.0814 30.6544 20.0384 29.8666 21.871C29.0788 23.7035 28.0065 25.2967 26.6496 26.6505C25.2928 28.0044 23.6996 29.0772 21.87 29.869C20.0405 30.6609 18.0835 31.0558 15.9991 31.0538ZM15.9991 28.043C19.3611 28.043 22.2088 26.8763 24.5421 24.543C26.8754 22.2097 28.0421 19.362 28.0421 16C28.0421 12.638 26.8754 9.79031 24.5421 7.45698C22.2088 5.12365 19.3611 3.95698 15.9991 3.95698C12.6371 3.95698 9.7894 5.12365 7.45607 7.45698C5.12273 9.79031 3.95607 12.638 3.95607 16C3.95607 19.362 5.12273 22.2097 7.45607 24.543C9.7894 26.8763 12.6371 28.043 15.9991 28.043Z" fill="#3A83FD"/>
</g>
<defs>
<clipPath id="clip0_331_386">
<rect width="32" height="32" fill="white"/>
</clipPath>
</defs>
</svg>
