<svg width="30" height="30" viewBox="0 0 30 30" fill="none" xmlns="http://www.w3.org/2000/svg">
<g clip-path="url(#clip0_302_161)">
<path d="M0 15C0 11.0218 1.58035 7.20644 4.3934 4.3934C7.20644 1.58035 11.0218 0 15 0C18.9782 0 22.7936 1.58035 25.6066 4.3934C28.4196 7.20644 30 11.0218 30 15C30 18.9782 28.4196 22.7936 25.6066 25.6066C22.7936 28.4196 18.9782 30 15 30C11.0218 30 7.20644 28.4196 4.3934 25.6066C1.58035 22.7936 0 18.9782 0 15ZM15 2.8125C11.7677 2.8125 8.66774 4.09654 6.38214 6.38214C4.09654 8.66774 2.8125 11.7677 2.8125 15C2.8125 18.2323 4.09654 21.3323 6.38214 23.6179C8.66774 25.9035 11.7677 27.1875 15 27.1875C18.2323 27.1875 21.3323 25.9035 23.6179 23.6179C25.9035 21.3323 27.1875 18.2323 27.1875 15C27.1875 11.7677 25.9035 8.66774 23.6179 6.38214C21.3323 4.09654 18.2323 2.8125 15 2.8125ZM12.975 11.4094C12.8084 11.7431 12.518 11.9969 12.1642 12.115C11.8105 12.2332 11.4243 12.206 11.0906 12.0394C10.7569 11.8728 10.5031 11.5805 10.385 11.2267C10.2668 10.873 10.294 10.4868 10.4606 10.1531C10.7775 9.5175 11.2781 8.83875 12.0525 8.32125C12.8344 7.8 13.8169 7.5 15 7.5C16.1018 7.49299 17.1771 7.83785 18.0694 8.48438C19.0125 9.19125 19.6875 10.2937 19.6875 11.7188C19.6875 12.5588 19.4719 13.275 19.0706 13.875C18.6862 14.4506 18.1894 14.8369 17.7731 15.1163C17.5688 15.2513 17.3606 15.375 17.1863 15.4819L17.175 15.4894C17.01 15.5852 16.8474 15.6853 16.6875 15.7894C16.488 15.9091 16.3125 16.0648 16.17 16.2488C15.9612 16.5546 15.6403 16.7657 15.2768 16.8363C14.9133 16.9069 14.5366 16.8314 14.2285 16.626C13.9204 16.4206 13.7058 16.1019 13.6312 15.7393C13.5566 15.3766 13.628 14.9991 13.83 14.6888C14.175 14.1938 14.6175 13.7719 15.1275 13.4494C15.32 13.3244 15.5156 13.2025 15.7144 13.0838L15.7275 13.0763C15.915 12.9619 16.0688 12.87 16.2113 12.7744C16.4114 12.6549 16.5876 12.4991 16.7306 12.315C16.8 12.2137 16.875 12.0506 16.875 11.7188C16.8825 11.5266 16.8414 11.3357 16.7555 11.1636C16.6696 10.9916 16.5418 10.8439 16.3837 10.7344C15.9774 10.4537 15.4938 10.3062 15 10.3125C14.3081 10.3125 13.8844 10.4812 13.6125 10.6631C13.3375 10.8509 13.1175 11.1084 12.975 11.4094ZM16.875 20.625C16.875 21.1223 16.6775 21.5992 16.3258 21.9508C15.9742 22.3025 15.4973 22.5 15 22.5C14.5027 22.5 14.0258 22.3025 13.6742 21.9508C13.3225 21.5992 13.125 21.1223 13.125 20.625C13.125 20.1277 13.3225 19.6508 13.6742 19.2992C14.0258 18.9475 14.5027 18.75 15 18.75C15.4973 18.75 15.9742 18.9475 16.3258 19.2992C16.6775 19.6508 16.875 20.1277 16.875 20.625Z" fill="black"/>
</g>
<defs>
<clipPath id="clip0_302_161">
<rect width="30" height="30" fill="white"/>
</clipPath>
</defs>
</svg>
