<svg width="32" height="32" viewBox="0 0 32 32" fill="none" xmlns="http://www.w3.org/2000/svg">
<g clip-path="url(#clip0_331_351)">
<path fill-rule="evenodd" clip-rule="evenodd" d="M29.958 21.8455C30.0394 21.9268 30.1041 22.0233 30.1482 22.1296C30.1923 22.2359 30.215 22.3499 30.215 22.465C30.215 22.5801 30.1923 22.6941 30.1482 22.8004C30.1041 22.9067 30.0394 23.0032 29.958 23.0845L23.77 29.2707C23.6059 29.4348 23.3833 29.5269 23.1513 29.5269C22.9193 29.5269 22.6968 29.4348 22.5327 29.2707L2.7332 9.47125C2.56916 9.30716 2.47701 9.08464 2.47701 8.85263C2.47701 8.62061 2.56916 8.39809 2.7332 8.234L8.9212 2.04775C9.08529 1.88371 9.30781 1.79156 9.53983 1.79156C9.77184 1.79156 9.99436 1.88371 10.1585 2.04775L12.0135 3.90275L9.0227 6.89525C8.93925 6.97609 8.87274 7.07273 8.82704 7.17955C8.78134 7.28636 8.75736 7.40121 8.75652 7.51739C8.75568 7.63357 8.77798 7.74875 8.82213 7.85622C8.86628 7.96369 8.93139 8.06129 9.01366 8.14333C9.09593 8.22536 9.19371 8.29019 9.3013 8.33404C9.40889 8.37788 9.52414 8.39986 9.64032 8.39869C9.75649 8.39752 9.87127 8.37322 9.97796 8.32722C10.0846 8.28122 10.1811 8.21443 10.2617 8.13075L13.2507 5.14L15.7269 7.61625L14.18 9.16325C14.0206 9.32828 13.9324 9.5493 13.9344 9.77873C13.9364 10.0081 14.0284 10.2276 14.1906 10.3898C14.3528 10.5521 14.5723 10.6441 14.8017 10.6461C15.0311 10.6481 15.2522 10.5599 15.4172 10.4005L16.9642 8.8535L19.4387 11.328L16.448 14.3188C16.3644 14.3995 16.2977 14.496 16.2519 14.6028C16.206 14.7095 16.1819 14.8243 16.1809 14.9405C16.1798 15.0567 16.202 15.1719 16.246 15.2795C16.29 15.387 16.3549 15.4847 16.4371 15.5668C16.5193 15.649 16.617 15.714 16.7245 15.758C16.832 15.802 16.9472 15.8241 17.0634 15.8231C17.1796 15.8221 17.2944 15.7979 17.4012 15.7521C17.5079 15.7062 17.6045 15.6396 17.6852 15.556L20.676 12.5653L23.1505 15.0398L21.6035 16.5868C21.5199 16.6675 21.4532 16.764 21.4074 16.8708C21.3615 16.9775 21.3374 17.0923 21.3364 17.2085C21.3353 17.3247 21.3575 17.4399 21.4015 17.5475C21.4455 17.655 21.5104 17.7527 21.5926 17.8348C21.6748 17.917 21.7725 17.982 21.88 18.026C21.9875 18.07 22.1027 18.0921 22.2189 18.0911C22.3351 18.0901 22.4499 18.0659 22.5567 18.0201C22.6634 17.9742 22.76 17.9076 22.8407 17.824L24.3877 16.277L26.864 18.7533L23.8715 21.744C23.7902 21.8254 23.7258 21.9219 23.6819 22.0282C23.6379 22.1344 23.6154 22.2483 23.6155 22.3632C23.6155 22.4782 23.6383 22.592 23.6823 22.6982C23.7264 22.8044 23.791 22.9009 23.8723 22.9821C23.9537 23.0634 24.0502 23.1278 24.1565 23.1717C24.2627 23.2156 24.3766 23.2382 24.4916 23.2381C24.6065 23.238 24.7204 23.2153 24.8266 23.1712C24.9327 23.1272 25.0292 23.0626 25.1105 22.9813L28.1012 19.9888L29.958 21.8455ZM31.1935 24.3218C31.4374 24.078 31.6309 23.7885 31.7629 23.4699C31.8949 23.1513 31.9629 22.8099 31.9629 22.465C31.9629 22.1201 31.8949 21.7787 31.7629 21.4601C31.6309 21.1415 31.4374 20.852 31.1935 20.6083L11.3957 0.810501C11.1519 0.566569 10.8625 0.373062 10.5439 0.241039C10.2253 0.109015 9.88381 0.0410614 9.53895 0.0410614C9.19409 0.0410614 8.85261 0.109015 8.53402 0.241039C8.21543 0.373062 7.92598 0.566569 7.6822 0.810501L1.49595 6.99675C1.00384 7.48901 0.727386 8.15657 0.727386 8.85263C0.727386 9.54868 1.00384 10.2162 1.49595 10.7085L21.2955 30.508C21.7876 30.9996 22.4548 31.2757 23.1505 31.2757C23.8461 31.2757 24.5133 30.9996 25.0055 30.508L31.1935 24.3218Z" fill="black"/>
</g>
<defs>
<clipPath id="clip0_331_351">
<rect width="32" height="32" fill="white" transform="matrix(-1 0 0 1 32 0)"/>
</clipPath>
</defs>
</svg>
