<svg width="55.350098" height="50.059937" viewBox="0 0 55.3501 50.0599" fill="none" xmlns="http://www.w3.org/2000/svg" xmlns:xlink="http://www.w3.org/1999/xlink">
	<desc>
			Created with Pixso.
	</desc>
	<defs/>
	<path id="shield-icon" d="M52.89 9.01C54.24 13.12 54.65 17.45 54.11 21.71C53.56 25.98 52.06 30.1 49.71 33.84C47.36 37.57 44.19 40.85 40.41 43.46C36.62 46.07 32.29 47.98 27.67 49.06C23.05 47.98 18.72 46.07 14.93 43.46C11.15 40.85 7.98 37.57 5.63 33.84C3.28 30.1 1.78 25.98 1.23 21.71C0.69 17.45 1.1 13.12 2.45 9.01C11.69 9.39 20.74 6.51 27.67 1C34.6 6.51 43.65 9.39 52.89 9.01Z" stroke="#000000" stroke-opacity="1.000000" stroke-width="2.000000" stroke-linejoin="round"/>
</svg>
