<svg width="50" height="50" viewBox="0 0 50 50" fill="none" xmlns="http://www.w3.org/2000/svg">
<path d="M7.88125 5.88754L25 2.08337L42.1187 5.88754C42.5814 5.99038 42.9951 6.24789 43.2917 6.61755C43.5883 6.98722 43.7499 7.44695 43.75 7.92087V28.7271C43.7498 30.7849 43.2417 32.8108 42.2706 34.6251C41.2995 36.4393 39.8956 37.9857 38.1833 39.1271L25 47.9167L11.8167 39.1271C10.1047 37.9859 8.70096 36.4398 7.72989 34.626C6.75882 32.8121 6.25049 30.7866 6.25 28.7292V7.92087C6.25008 7.44695 6.41175 6.98722 6.70831 6.61755C7.00488 6.24789 7.41862 5.99038 7.88125 5.88754ZM10.4167 9.59171V28.7271C10.4167 30.0989 10.7554 31.4495 11.4026 32.659C12.0499 33.8685 12.9857 34.8995 14.1271 35.6605L25 42.9105L35.8729 35.6605C37.014 34.8997 37.9496 33.869 38.5969 32.6599C39.2441 31.4508 39.583 30.1006 39.5833 28.7292V9.59171L25 6.35421L10.4167 9.59171Z" fill="black"/>
</svg>
