<svg width="28" height="32" viewBox="0 0 28 32" fill="none" xmlns="http://www.w3.org/2000/svg">
<path d="M14 1C17.3788 4.44429 21.7887 6.23761 26.2953 6C26.9515 8.57169 27.1522 11.2691 26.8857 13.932C26.6192 16.5948 25.8908 19.1688 24.7438 21.5009C23.5969 23.833 22.0547 25.8756 20.2091 27.5075C18.3634 29.1393 16.2519 30.327 14 31C11.7481 30.327 9.63657 29.1393 7.79091 27.5075C5.94526 25.8756 4.40313 23.833 3.25617 21.5009C2.10921 19.1688 1.38083 16.5948 1.1143 13.932C0.847763 11.2691 1.04853 8.57169 1.70465 6C6.2113 6.23761 10.6212 4.44429 14 1Z" stroke="black" stroke-width="2" stroke-linecap="round" stroke-linejoin="round"/>
</svg>
