<svg width="24.000000" height="24.000000" viewBox="0 0 24 24" fill="none" xmlns="http://www.w3.org/2000/svg" xmlns:xlink="http://www.w3.org/1999/xlink">
	<desc>
			Created with Pixso.
	</desc>
	<defs>
		<clipPath id="clip70_249">
			<rect id="solar:settings-linear" rx="0.000000" width="23.000000" height="23.000000" transform="translate(0.500000 0.500000)" fill="white" fill-opacity="0"/>
		</clipPath>
	</defs>
	<rect id="solar:settings-linear" rx="0.000000" width="23.000000" height="23.000000" transform="translate(0.500000 0.500000)" fill="#FFFFFF" fill-opacity="0"/>
	<g clip-path="url(#clip70_249)">
		<path id="Vector" d="M12 15C10.34 15 9 13.65 9 12C9 10.34 10.34 9 12 9C13.65 9 15 10.34 15 12C15 13.65 13.65 15 12 15Z" stroke="#000000" stroke-opacity="1.000000" stroke-width="1.500000"/>
		<path id="Vector" d="M12 2C11.06 2 10.6 2 10.23 2.15C9.99 2.25 9.77 2.39 9.58 2.58C9.39 2.77 9.25 2.99 9.15 3.23C9.06 3.45 9.02 3.71 9 4.09C9 4.37 8.92 4.63 8.78 4.87C8.65 5.11 8.45 5.31 8.21 5.45C7.97 5.58 7.71 5.65 7.43 5.65C7.16 5.65 6.89 5.59 6.65 5.45C6.31 5.28 6.07 5.18 5.83 5.15C5.3 5.08 4.77 5.22 4.35 5.54C4.04 5.78 3.8 6.19 3.33 7C2.87 7.8 2.63 8.21 2.58 8.6C2.55 8.86 2.57 9.13 2.63 9.38C2.7 9.63 2.82 9.87 2.98 10.08C3.13 10.27 3.33 10.43 3.66 10.63C4.13 10.93 4.43 11.44 4.43 12C4.43 12.55 4.13 13.06 3.66 13.36C3.33 13.56 3.13 13.72 2.98 13.91C2.82 14.12 2.7 14.36 2.63 14.61C2.57 14.86 2.55 15.13 2.58 15.39C2.64 15.78 2.87 16.19 3.33 17C3.8 17.8 4.03 18.2 4.35 18.45C4.56 18.61 4.8 18.73 5.05 18.79C5.3 18.86 5.57 18.88 5.83 18.84C6.07 18.81 6.31 18.71 6.65 18.54C6.89 18.4 7.16 18.34 7.43 18.34C7.71 18.34 7.97 18.41 8.21 18.54C8.7 18.82 8.98 19.34 9 19.9C9.02 20.28 9.05 20.54 9.15 20.76C9.25 21 9.39 21.22 9.58 21.41C9.77 21.6 9.99 21.74 10.23 21.84C10.6 22 11.06 22 12 22C12.93 22 13.39 22 13.76 21.84C14 21.74 14.22 21.6 14.41 21.41C14.6 21.22 14.74 21 14.84 20.76C14.93 20.54 14.97 20.28 14.99 19.9C15.01 19.34 15.29 18.82 15.78 18.54C16.02 18.41 16.28 18.34 16.56 18.34C16.83 18.34 17.1 18.4 17.34 18.54C17.68 18.71 17.92 18.81 18.16 18.84C18.42 18.88 18.69 18.86 18.94 18.79C19.19 18.73 19.43 18.61 19.64 18.45C19.96 18.21 20.19 17.8 20.65 17C21.12 16.19 21.35 15.79 21.41 15.39C21.44 15.13 21.42 14.86 21.36 14.61C21.29 14.36 21.17 14.12 21.01 13.91C20.86 13.72 20.65 13.56 20.33 13.36C20.1 13.21 19.91 13.01 19.77 12.78C19.63 12.54 19.56 12.27 19.56 12C19.56 11.44 19.86 10.93 20.33 10.64C20.65 10.43 20.86 10.27 21.01 10.08C21.17 9.87 21.29 9.63 21.36 9.38C21.42 9.13 21.44 8.86 21.41 8.6C21.35 8.21 21.12 7.8 20.66 7C20.19 6.19 19.96 5.78 19.64 5.54C19.43 5.38 19.19 5.26 18.94 5.2C18.69 5.13 18.42 5.11 18.16 5.15C17.92 5.18 17.68 5.28 17.34 5.45C17.1 5.59 16.83 5.65 16.56 5.65C16.28 5.65 16.02 5.58 15.78 5.45C15.54 5.31 15.34 5.11 15.21 4.87C15.07 4.63 14.99 4.37 14.99 4.09C14.97 3.71 14.94 3.45 14.84 3.23C14.74 2.99 14.6 2.77 14.41 2.58C14.22 2.39 14 2.25 13.76 2.15C13.39 2 12.93 2 12 2Z" stroke="#000000" stroke-opacity="1.000000" stroke-width="1.500000"/>
	</g>
</svg>
