<svg width="30" height="30" viewBox="0 0 30 30" fill="none" xmlns="http://www.w3.org/2000/svg">
<path d="M24.8626 9.17498C24.7501 9.58748 24.2501 10.625 23.4001 11.6125C22.8376 22.4625 12.3126 25.9875 5.10006 22.35C4.11256 21.0375 8.66256 21.575 10.3251 19.0625C4.03756 15.85 4.53756 7.26248 5.80006 7.61248C8.76256 11.6 13.5376 11.9625 14.3126 11.6C14.3126 10.6875 13.9251 8.69998 16.0751 7.03748C17.3126 6.14998 19.9001 5.36248 22.2376 7.89998C22.6376 8.16248 23.2126 8.27498 24.0751 8.08748C24.5876 7.82498 25.2626 7.99998 24.9126 8.91248L24.8626 9.17498Z" stroke="white" stroke-width="2" stroke-linecap="round" stroke-linejoin="round"/>
</svg>
